<?xml version="1.0" encoding="UTF-8"?>
<svg width="102px" height="126px" viewBox="0 0 102 126" version="1.1" xmlns="http://www.w3.org/2000/svg" xmlns:xlink="http://www.w3.org/1999/xlink">
    <title>安全</title>
    <defs>
        <radialGradient cx="50%" cy="20.4549154%" fx="50%" fy="20.4549154%" r="129.72973%" gradientTransform="translate(0.500000,0.204549),scale(1.000000,0.770833),rotate(90.000000),translate(-0.500000,-0.204549)" id="radialGradient-1">
            <stop stop-color="#92E45A" offset="0%"></stop>
            <stop stop-color="#417A1F" offset="100%"></stop>
        </radialGradient>
        <linearGradient x1="50%" y1="0%" x2="50%" y2="100%" id="linearGradient-2">
            <stop stop-color="#FFFFFF" offset="0%"></stop>
            <stop stop-color="#FFFFFF" stop-opacity="0.299825175" offset="100%"></stop>
        </linearGradient>
        <linearGradient x1="50%" y1="0%" x2="50%" y2="85.4594624%" id="linearGradient-3">
            <stop stop-color="#7FE135" offset="0%"></stop>
            <stop stop-color="#043504" offset="100%"></stop>
        </linearGradient>
        <linearGradient x1="50%" y1="0%" x2="50%" y2="100%" id="linearGradient-4">
            <stop stop-color="#ECFFDE" offset="0.0245847902%"></stop>
            <stop stop-color="#80E438" stop-opacity="0.125136582" offset="100%"></stop>
        </linearGradient>
        <path d="M53.7842533,45.911721 L53.7842533,43.4738948 C53.7842533,42.459456 52.9246081,42 51.9299946,42 C50.9353812,42 50.2397821,42.459456 50.2397821,43.4738948 L50.2397821,45.911721 C40.2969253,46.7770382 32.2988382,54.8534468 31,65.1636789 C34.1257839,61.7501735 37.7334531,61.8673957 38.6836094,62.0081995 C41.9597409,62.4925233 43.33203,63.3530384 45.3776478,65.6771583 C46.7550634,63.6914134 49.2877769,61.9109574 52.0085721,61.9109574 C54.3157223,61.9109574 56.9423926,63.7061627 58.3369524,65.8161613 C61.4045806,61.8377258 64.5816288,61.9824741 65.6496932,62.0443866 C67.2356121,62.1363979 69.9426247,62.440215 73,65.0411403 C71.6551078,54.7929063 63.6844177,46.7775527 53.7842533,45.911721 Z M52.000084,64.5899164 C51.033624,64.5899164 50.250119,65.3893766 50.250119,66.3755175 L50.250119,77.5453216 C50.2423873,78.0266441 50.0775008,80.428712 47.6097502,80.428712 C47.0115534,80.428712 45.0556064,80.2199073 44.9677006,77.5797936 L44.9745079,76.536628 C44.9762727,75.5504871 44.1952049,74.7487974 43.2288289,74.7465678 C43.2270641,74.7465678 43.2262237,74.7465678 43.2245429,74.7465678 C42.2597637,74.7465678 41.4762587,75.5431124 41.4745779,76.5278814 L41.4676866,77.6059479 C41.510463,80.1759169 43.1817665,84 47.6098343,84 C52.0369776,84 53.7075248,80.1759169 53.7502171,77.5755062 L53.7502171,66.3755175 C53.750049,65.3893766 52.966544,64.5899164 52.000084,64.5899164 Z" id="path-5"></path>
        <filter x="-10.4%" y="-9.5%" width="120.7%" height="119.0%" filterUnits="objectBoundingBox" id="filter-6">
            <feGaussianBlur stdDeviation="3" in="SourceAlpha" result="shadowBlurInner1"></feGaussianBlur>
            <feOffset dx="0" dy="0" in="shadowBlurInner1" result="shadowOffsetInner1"></feOffset>
            <feComposite in="shadowOffsetInner1" in2="SourceAlpha" operator="arithmetic" k2="-1" k3="1" result="shadowInnerInner1"></feComposite>
            <feColorMatrix values="0 0 0 0 0   0 0 0 0 0   0 0 0 0 0  0 0 0 0.650103802 0" type="matrix" in="shadowInnerInner1"></feColorMatrix>
        </filter>
    </defs>
    <g id="页面-1" stroke="none" stroke-width="1" fill="none" fill-rule="evenodd">
        <g id="1-2IP_IP-WHOIS" transform="translate(-118.000000, -143.000000)" fill-rule="nonzero">
            <g id="上" transform="translate(40.000000, 94.000000)">
                <g id="左" transform="translate(48.000000, 49.000000)">
                    <g id="安全" transform="translate(30.000000, 0.000000)">
                        <path d="M51.2108571,0 L53.2432857,1.76854862 C60.9747142,8.50420922 82.9877142,14.8409473 98.966,16.6503536 L102,17.0005612 L102,84.5704344 C102,100.329779 78.6632857,114.057919 52.3471428,125.387137 L50.9238571,126 L49.5298572,125.334605 C22.9267143,112.604557 0,99.2733191 0,84.5704344 L0,16.6270064 L3.41471426,16.6270064 C14.924,16.6270064 36.9018571,10.2377372 49.0144286,1.57009764 L51.2108571,0 Z" id="路径" fill="#68B92E" opacity="0.0824400436"></path>
                        <path d="M51.2108571,10 L53.2432857,11.7685486 C60.9747142,18.5042092 74.9877142,22.8409473 90.966,24.6503536 L94,25.0005612 L94,76.5704344 C94,92.3297789 78.6632857,106.057919 52.3471428,117.387137 L50.9238571,118 L49.5298572,117.334605 C22.9267143,104.604557 8,91.2733191 8,76.5704344 L8,24.6270064 L11.4147143,24.6270064 C22.924,24.6270064 36.9018571,20.2377372 49.0144286,11.5700976 L51.2108571,10 Z" id="路径" fill="#68B92E" opacity="0.148959847"></path>
                        <path d="M51.1902857,16 L53.0244285,17.6325064 C60.0015714,23.8500393 70.8425714,27.8531821 85.262,29.5234033 L88,29.8466719 L88,73.7573241 C88,88.3044113 75.9644286,100.976541 52.2157142,111.43428 L50.9312857,112 L49.6732857,111.38579 C25.6655715,99.6349759 14,87.3292177 14,73.7573241 L14,29.5018521 L17.0815714,29.5018521 C27.468,29.5018521 38.2772857,25.450219 49.2081429,17.4493209 L51.1902857,16 Z" id="路径" fill="url(#radialGradient-1)"></path>
                        <path d="M51.1440835,20.6413201 L52.5280921,21.8701585 C58.9995208,27.6229004 69.0468493,31.3471519 82.4255153,32.8930208 L82.4255153,32.8930208 L84.5,33.1373495 L84.5,72.9442137 C84.5,79.4920172 81.7715421,85.6111012 76.3801348,91.2737528 C70.9239408,97.0044506 62.7536996,102.262985 51.9160169,107.023659 L51.9160169,107.023659 L50.9476713,107.449116 L50.0002342,106.98767 C39.0361384,101.634338 30.8855272,96.1600336 25.4801795,90.4724044 C20.1472397,84.8609643 17.5,79.0492374 17.5,72.9442137 L17.5,72.9442137 L17.5,32.8766978 L19.8317143,32.8766978 C29.4686991,32.8766978 39.5033851,29.1397631 49.6480754,21.7325037 L49.6480754,21.7325037 L51.1440835,20.6413201 Z" id="路径" stroke="url(#linearGradient-2)"></path>
                        <g id="形状">
                            <use fill="url(#linearGradient-3)" xlink:href="#path-5"></use>
                            <use fill="black" fill-opacity="1" filter="url(#filter-6)" xlink:href="#path-5"></use>
                            <path stroke="url(#linearGradient-4)" stroke-width="1" d="M52.000084,64.0899164 C52.6224965,64.0899164 53.1864783,64.3465404 53.5945735,64.762906 C53.9990589,65.1755887 54.2501097,65.7454805 54.2502171,66.3755175 L54.2502171,66.3755175 L54.2501497,77.5837138 C54.2241308,79.1685389 53.629833,81.1745845 52.2552695,82.6127481 C51.198463,83.7184522 49.6855689,84.5 47.6098343,84.5 C45.5372389,84.5 44.0256242,83.7210621 42.9688493,82.6209463 C41.587917,81.1833786 40.9923822,79.1780992 40.9676607,77.6083954 L40.9676607,77.6083954 L40.9745786,76.527028 C40.9756523,75.8979515 41.2271012,75.3294028 41.6314798,74.9177803 C42.0395466,74.5024034 42.6030779,74.2465678 43.2256913,74.2465691 C43.8500114,74.2480032 44.4137485,74.505785 44.8210663,74.9224352 C45.2256015,75.3362392 45.4756352,75.9071551 45.4744972,76.5398907 L45.4744972,76.5398907 L45.4677565,77.5728593 C45.4970385,78.4024406 45.7300282,78.9551815 46.059835,79.3108117 C46.582627,79.8745376 47.3103732,79.928712 47.6097502,79.928712 C48.3255329,79.928712 48.8082024,79.6894916 49.123005,79.3457144 C49.7022352,78.7131713 49.7460451,77.7949167 49.750119,77.5453216 L49.750119,77.5453216 L49.750119,66.3755175 C49.750119,65.7455496 50.0011171,65.1756416 50.4055801,64.7629421 C50.8136547,64.3465576 51.3776513,64.0899164 52.000084,64.0899164 Z M51.9299946,41.5 C52.5825798,41.5 53.1801839,41.6755566 53.6021971,42.0110024 C54.0169895,42.3407085 54.2842533,42.8207572 54.2842533,43.4738948 L54.2842533,43.4738948 L54.2842533,45.4586141 C59.1602486,45.9936058 63.557612,48.2234035 66.930177,51.5808172 C70.4162619,55.0512407 72.8068729,59.7267637 73.4957494,64.9760823 C73.5543611,65.4227102 73.5999991,65.8685034 73.6327399,66.3129633 C73.343347,66.0168541 73.0254836,65.7192681 72.6760199,65.4219774 C69.7413126,62.9254064 67.1432646,62.6318809 65.6207583,62.5435487 C64.6118804,62.4850671 61.6216673,62.3750206 58.7329133,66.1214725 C58.5763451,66.3245273 58.430809,66.5249897 58.2956945,66.7216968 C58.1780858,66.5032344 58.0525228,66.2926255 57.919826,66.0918524 C56.6171866,64.1209313 54.1730911,62.4109574 52.0085721,62.4109574 C49.450392,62.4109574 47.0805593,64.099424 45.7884852,65.9621365 C45.6663281,66.1382437 45.5490044,66.3228285 45.4372507,66.514713 C45.3000263,66.3498159 45.1551644,66.1811587 45.0023224,66.0075079 C43.0489974,63.7882461 41.7391836,62.9653516 38.6103147,62.5027982 C37.7125276,62.369755 34.3131266,62.2859525 31.3687526,65.5013497 C30.9719522,65.9346747 30.6355654,66.3709693 30.3513269,66.8030226 C30.381545,66.2378894 30.4322277,65.6702884 30.5039209,65.101185 C31.1690516,59.8213494 33.5540047,55.1152982 37.0454093,51.621684 C40.4250923,48.2398622 44.841055,45.9938482 49.7397821,45.4584229 L49.7397821,45.4584229 L49.7397821,43.4738948 C49.7397821,42.8106973 49.9758169,42.3339393 50.349046,42.008477 C50.7273893,41.6785551 51.2715104,41.5 51.9299946,41.5 Z"></path>
                        </g>
                    </g>
                </g>
            </g>
        </g>
    </g>
</svg>