<?xml version="1.0" encoding="UTF-8"?>
<svg width="102px" height="126px" viewBox="0 0 102 126" version="1.1"
    xmlns="http://www.w3.org/2000/svg"
    xmlns:xlink="http://www.w3.org/1999/xlink">
    <title>恶意</title>
    <defs>
        <radialGradient cx="50%" cy="20.4549154%" fx="50%" fy="20.4549154%" r="129.72973%" gradientTransform="translate(0.500000,0.204549),scale(1.000000,0.770833),rotate(90.000000),translate(-0.500000,-0.204549)" id="radialGradient-1">
            <stop stop-color="#f5cf00" offset="0%"></stop>
            <stop stop-color="#f57d01" offset="100%"></stop>
        </radialGradient>
        <linearGradient x1="50%" y1="0%" x2="50%" y2="100%" id="linearGradient-2">
            <stop stop-color="#FFFFFF" offset="0%"></stop>
            <stop stop-color="#FFFFFF" stop-opacity="0.301245629" offset="100%"></stop>
        </linearGradient>
        <linearGradient x1="50%" y1="0%" x2="50%" y2="100%" id="linearGradient-3">
            <stop stop-color="#FFCB42" offset="0%"></stop>
            <stop stop-color="#FFB200" offset="100%"></stop>
        </linearGradient>
        <linearGradient x1="50%" y1="0%" x2="50%" y2="100%" id="linearGradient-4">
            <stop stop-color="#FEFBE7" offset="0%"></stop>
            <stop stop-color="#FFF4CF" stop-opacity="0" offset="100%"></stop>
        </linearGradient>
        <path d="M51.1178668,39.9999316 C59.2548857,39.9932828 66.594657,44.8890616 69.7143841,52.4042744 C72.8341113,59.9194872 71.1193568,68.5739953 65.3697716,74.3318935 L65.3697716,74.3318935 L53.0770904,88.088071 C52.7566875,88.4732512 52.1084352,89.4438949 51.1323337,91.0000021 C50.1562321,89.4438949 49.5079799,88.4732512 49.1875769,88.088071 L49.1875769,88.088071 L36.8783622,74.3277601 C31.1333293,68.5710736 29.4196647,59.921493 32.5358355,52.409215 C35.6520062,44.8969369 42.9849189,39.9999316 51.1178668,39.9999316 Z M51.1199335,45.8246537 C43.4886591,45.8246537 37.2658116,51.9414357 37.1346319,59.5715826 C37.1346319,64.1803047 39.3005246,67.0364725 43.7769785,68.3136878 L43.7769785,68.3136878 L43.7769785,69.5537027 C43.7787333,70.7723119 44.5354629,71.8622871 45.6765967,72.2898674 C46.8177305,72.7174478 48.1043935,72.3931273 48.9065069,71.4757259 C49.4676354,72.1173751 50.2778734,72.4863496 51.130267,72.4884047 C51.9832456,72.4945348 52.7954652,72.1239691 53.3498937,71.4757259 C53.9094133,72.1171767 54.7183349,72.4862378 55.5695204,72.4884047 C56.343623,72.4963613 57.0879858,72.1906538 57.6330469,71.6409207 C58.1781081,71.0911875 58.4774515,70.3442428 58.4628885,69.5702363 L58.4628885,69.5702363 L58.4628885,68.3302214 C62.935209,67.053006 65.1052351,64.1885715 65.1052351,59.5715826 C64.9740554,51.9414357 58.7512079,45.8246537 51.1199335,45.8246537 Z M59.3226322,54.2519187 C61.2980268,56.2342944 61.2980268,59.4409625 59.3226322,61.4233382 C57.3402564,63.3987329 54.1335884,63.3987329 52.1512126,61.4233382 L59.3226322,54.2519187 Z M42.9172348,54.2519187 L50.0845211,61.4233382 C48.1035615,63.3982564 44.8981944,63.3982564 42.9172348,61.4233382 C40.9372894,59.4428449 40.9372894,56.2324119 42.9172348,54.2519187 Z" id="path-5"></path>
        <filter x="-9.9%" y="-7.8%" width="119.9%" height="117.4%" filterUnits="objectBoundingBox" id="filter-6">
            <feGaussianBlur stdDeviation="3" in="SourceAlpha" result="shadowBlurInner1"></feGaussianBlur>
            <feOffset dx="0" dy="0" in="shadowBlurInner1" result="shadowOffsetInner1"></feOffset>
            <feComposite in="shadowOffsetInner1" in2="SourceAlpha" operator="arithmetic" k2="-1" k3="1" result="shadowInnerInner1"></feComposite>
            <feColorMatrix values="0 0 0 0 0   0 0 0 0 0   0 0 0 0 0  0 0 0 0.5 0" type="matrix" in="shadowInnerInner1"></feColorMatrix>
        </filter>
    </defs>
    <g id="页面-1" stroke="none" stroke-width="1" fill="none" fill-rule="evenodd">
        <g id="1-1IP_恶意监控" transform="translate(-118.000000, -159.000000)" fill-rule="nonzero">
            <g id="上" transform="translate(40.000000, 94.000000)">
                <g id="左" transform="translate(48.000000, 65.000000)">
                    <g id="恶意" transform="translate(30.000000, 0.000000)">
                        <path d="M51.2108571,0 L53.2432857,1.76854862 C60.9747142,8.50420922 82.9877142,14.8409473 98.966,16.6503536 L102,17.0005612 L102,84.5704344 C102,100.329779 78.6632857,114.057919 52.3471428,125.387137 L50.9238571,126 L49.5298572,125.334605 C22.9267143,112.604557 0,99.2733191 0,84.5704344 L0,16.6270064 L3.41471426,16.6270064 C14.924,16.6270064 36.9018571,10.2377372 49.0144286,1.57009764 L51.2108571,0 Z" id="路径" fill="#e77817" opacity="0.063340298"></path>
                        <path d="M51.2108571,10 L53.2432857,11.7685486 C60.9747142,18.5042092 74.9877142,22.8409473 90.966,24.6503536 L94,25.0005612 L94,76.5704344 C94,92.3297789 78.6632857,106.057919 52.3471428,117.387137 L50.9238571,118 L49.5298572,117.334605 C22.9267143,104.604557 8,91.2733191 8,76.5704344 L8,24.6270064 L11.4147143,24.6270064 C22.924,24.6270064 36.9018571,20.2377372 49.0144286,11.5700976 L51.2108571,10 Z" id="路径" fill="#e77817" opacity="0.121434411"></path>
                        <path d="M51.1902857,16 L53.0244285,17.6325064 C60.0015714,23.8500393 70.8425714,27.8531821 85.262,29.5234033 L88,29.8466719 L88,73.7573241 C88,88.3044113 75.9644286,100.976541 52.2157142,111.43428 L50.9312857,112 L49.6732857,111.38579 C25.6655715,99.6349759 14,87.3292177 14,73.7573241 L14,29.5018521 L17.0815714,29.5018521 C27.468,29.5018521 38.2772857,25.450219 49.2081429,17.4493209 L51.1902857,16 Z" id="路径" fill="url(#radialGradient-1)"></path>
                        <path d="M51.1440835,20.6413201 L52.5280921,21.8701585 C58.9995208,27.6229004 69.0468493,31.3471519 82.4255153,32.8930208 L82.4255153,32.8930208 L84.5,33.1373495 L84.5,72.9442137 C84.5,79.4920172 81.7715421,85.6111012 76.3801348,91.2737528 C70.9239408,97.0044506 62.7536996,102.262985 51.9160169,107.023659 L51.9160169,107.023659 L50.9476713,107.449116 L50.0002342,106.98767 C39.0361384,101.634338 30.8855272,96.1600336 25.4801795,90.4724044 C20.1472397,84.8609643 17.5,79.0492374 17.5,72.9442137 L17.5,72.9442137 L17.5,32.8766978 L19.8317143,32.8766978 C29.4686991,32.8766978 39.5033851,29.1397631 49.6480754,21.7325037 L49.6480754,21.7325037 L51.1440835,20.6413201 Z" id="路径" stroke="url(#linearGradient-2)"></path>
                        <g id="形状结合">
                            <use fill="url(#linearGradient-3)" xlink:href="#path-5"></use>
                            <use fill="black" fill-opacity="1" filter="url(#filter-6)" xlink:href="#path-5"></use>
                            <path stroke="url(#linearGradient-4)" stroke-width="1" d="M51.1174583,39.4999318 C55.2870927,39.4965247 59.252461,40.7491897 62.5750777,42.9654582 C65.8976854,45.1817208 68.577545,48.3615816 70.1761755,52.2125748 C71.7469824,55.996543 72.1218729,60.0623404 71.3980368,63.9194717 C70.7025944,67.6253008 68.9929174,71.1385036 66.3552311,74.0240939 L66.0206932,74.3814924 L53.455899,88.4145575 C53.1397025,88.7969251 52.5076915,89.7483408 51.5558999,91.265693 C51.4054247,91.5055814 51.2642057,91.7321168 51.1321262,91.9449434 C51.0002455,91.7318033 50.8591217,91.5053886 50.7087675,91.265693 C49.8689709,89.9268841 49.2768557,89.0276748 48.9304383,88.5695508 L48.8644303,88.4838076 L36.5147071,74.6711852 C33.5763228,71.7229246 31.6686637,68.0356689 30.8936807,64.1240062 C30.1178414,60.2080215 30.4771826,56.0671336 32.0739932,52.217638 C33.670804,48.368142 36.3480018,45.1887147 39.667883,42.9716617 C42.9877626,40.7546099 46.9503248,39.4999316 51.1174583,39.4999318 Z M51.1199335,46.3246537 C47.4406921,46.3246537 44.1009709,47.7991858 41.6652487,50.1933923 C39.2295265,52.5875988 37.6978033,55.9014797 37.634558,59.5801775 C37.6346319,61.7101795 38.1160027,63.4552132 39.1581102,64.8267486 C40.2475088,66.2605246 41.9410805,67.2776033 44.2769785,67.9401132 L44.2769785,67.9401132 L44.2769785,69.5537027 L44.2845119,69.7415575 C44.3188564,70.176537 44.4693426,70.5862898 44.7102404,70.9332732 C44.9855521,71.3298257 45.3789524,71.6443936 45.8520344,71.8216563 C46.3251163,71.9989191 46.8283644,72.0203234 47.2964754,71.9023299 C47.7645864,71.7843363 48.1975603,71.5269448 48.530094,71.146616 C48.6848325,70.9696368 48.8102859,70.7746572 48.9056887,70.5684196 C49.0027143,70.7758179 49.1290894,70.9707112 49.2828867,71.1465781 C49.7493463,71.6799736 50.4228876,71.9866978 51.1314724,71.9884061 C51.8394366,71.9934884 52.5112973,71.6869598 52.9699156,71.1507388 C53.1249903,70.9694238 53.2503401,70.768095 53.3438983,70.5540089 C53.4412668,70.7668402 53.5695631,70.9669197 53.726691,71.1470561 C54.191549,71.679984 54.8636144,71.986606 55.5707932,71.9884063 C56.2136389,71.9949988 56.8280697,71.742654 57.277988,71.2888792 C57.6925856,70.8707279 57.9260613,70.3126891 57.9628885,69.5583839 L57.9628885,69.5583839 L57.9628885,67.9480975 L58.3401847,67.8452654 C60.4468961,67.2412489 62.0214671,66.2742797 63.0622484,64.9018991 C64.1050506,63.5268538 64.6052351,61.7531964 64.6052351,59.5715826 C64.5420637,55.9014797 63.0103406,52.5875988 60.5746184,50.1933923 C58.1388961,47.7991858 54.7991749,46.3246537 51.1199335,46.3246537 Z M59.3077838,53.5596602 C60.6387134,54.6811091 61.3041782,56.2593688 61.3041782,57.8376284 C61.3041782,59.2625744 60.7617217,60.6875203 59.6755614,61.7775147 C58.5868143,62.8624277 57.1618683,63.4048842 55.7369224,63.4048842 C54.2463438,63.4048842 52.7557652,62.8113061 51.6500137,61.6241498 L51.4589542,61.4084899 L59.3077838,53.5596602 Z M42.932736,53.5601181 L50.7766025,61.4085081 C49.6559433,62.7391872 48.0784106,63.4045268 46.5008779,63.4045268 C45.0765742,63.4045268 43.6522705,62.8621616 42.5636325,61.7768427 C41.4760614,60.6889706 40.9322758,59.2632995 40.9322758,57.8376284 C40.9322758,56.2588913 41.5990959,54.6801542 42.932736,53.5601181 Z"></path>
                        </g>
                    </g>
                </g>
            </g>
        </g>
    </g>
</svg>