<?xml version="1.0" encoding="UTF-8"?>
<svg width="102px" height="126px" viewBox="0 0 102 126" version="1.1" xmlns="http://www.w3.org/2000/svg" xmlns:xlink="http://www.w3.org/1999/xlink">
    <title>未知</title>
    <defs>
        <radialGradient cx="50%" cy="15.3645833%" fx="50%" fy="15.3645833%" r="123.580025%" gradientTransform="translate(0.500000,0.153646),scale(1.000000,0.770833),rotate(90.000000),translate(-0.500000,-0.153646)" id="radialGradient-1">
            <stop stop-color="#E3E3E3" offset="0%"></stop>
            <stop stop-color="#7C7C7C" offset="100%"></stop>
        </radialGradient>
        <linearGradient x1="50%" y1="0%" x2="50%" y2="100%" id="linearGradient-2">
            <stop stop-color="#FFFFFF" offset="0%"></stop>
            <stop stop-color="#FFFFFF" stop-opacity="0.299825175" offset="100%"></stop>
        </linearGradient>
        <linearGradient x1="50%" y1="0%" x2="50%" y2="90.4611014%" id="linearGradient-3">
            <stop stop-color="#AFAFAF" offset="0%"></stop>
            <stop stop-color="#262626" offset="100%"></stop>
        </linearGradient>
        <linearGradient x1="50%" y1="0%" x2="50%" y2="100%" id="linearGradient-4">
            <stop stop-color="#FFFFFF" offset="0.0600961538%"></stop>
            <stop stop-color="#D3D3D3" stop-opacity="0.082659528" offset="100%"></stop>
        </linearGradient>
        <path d="M51.012593,41 C51.8689181,41 52.5741271,41.7048055 52.5741271,42.5606407 L52.5741271,42.5606407 L52.5741271,46.6887872 C60.3817974,47.4187643 66.6027476,53.6361556 67.3331425,61.4393593 L67.3331425,61.4393593 L71.4384659,61.4393593 C72.3199771,61.4393593 73,62.1441648 73,63 C73,63.8558352 72.2947911,64.5606407 71.4384659,64.5606407 L71.4384659,64.5606407 L67.3331425,64.5606407 C66.6027476,72.3638444 60.3817974,78.5812357 52.5741271,79.3112128 L52.5741271,79.3112128 L52.5741271,83.4393593 C52.5741271,84.2951945 51.8689181,85 51.012593,85 C50.1562679,85 49.451059,84.2951945 49.451059,83.4393593 L49.451059,83.4393593 L49.451059,79.3112128 C41.6433887,78.5812357 35.4224385,72.3638444 34.6920435,64.5606407 L34.6920435,64.5606407 L30.5615341,64.5606407 C29.7052089,64.5606407 29,63.8558352 29,63 C29,62.1441648 29.7052089,61.4393593 30.5615341,61.4393593 L30.5615341,61.4393593 L34.6920435,61.4393593 C35.4224385,53.6361556 41.6433887,47.4187643 49.451059,46.6887872 L49.451059,46.6887872 L49.451059,42.5606407 C49.451059,41.7048055 50.1562679,41 51.012593,41 Z M52.2467086,69.7459954 L49.1236405,69.7459954 L49.1236405,72.993135 L52.2467086,72.993135 L52.2467086,69.7459954 Z M51.0629651,52.604119 C46.6805953,52.4782609 44.4894104,54.819222 44.4894104,59.6773455 L44.4894104,59.6773455 L47.7132227,59.6773455 C47.6628506,56.8329519 48.8717802,55.4988558 51.3400114,55.624714 C52.8511734,55.8009153 53.6319405,56.6315789 53.7074986,58.1167048 C53.6571265,58.97254 52.9771036,59.979405 51.7178019,61.1624714 C49.9295936,62.7231121 49.0732685,64.2334096 49.1488266,65.6430206 L49.1488266,65.6430206 L49.1488266,67.4553776 L52.2718947,67.4553776 L52.2718947,66.1464531 C52.2215226,65.1647597 52.9519176,63.9816934 54.4882656,62.6224256 C56.30166,61.0869565 57.1831712,59.6018307 57.1327991,58.1922197 C56.9816829,54.5926773 54.9668002,52.7299771 51.0629651,52.604119 Z" id="path-5"></path>
        <filter x="-9.1%" y="-9.1%" width="118.2%" height="118.2%" filterUnits="objectBoundingBox" id="filter-6">
            <feGaussianBlur stdDeviation="3" in="SourceAlpha" result="shadowBlurInner1"></feGaussianBlur>
            <feOffset dx="0" dy="0" in="shadowBlurInner1" result="shadowOffsetInner1"></feOffset>
            <feComposite in="shadowOffsetInner1" in2="SourceAlpha" operator="arithmetic" k2="-1" k3="1" result="shadowInnerInner1"></feComposite>
            <feColorMatrix values="0 0 0 0 0   0 0 0 0 0   0 0 0 0 0  0 0 0 0.665564904 0" type="matrix" in="shadowInnerInner1"></feColorMatrix>
        </filter>
    </defs>
    <g id="页面-1" stroke="none" stroke-width="1" fill="none" fill-rule="evenodd">
        <g id="1-3IP_关联域名" transform="translate(-118.000000, -143.000000)" fill-rule="nonzero">
            <g id="上" transform="translate(40.000000, 94.000000)">
                <g id="左" transform="translate(48.000000, 49.000000)">
                    <g id="未知" transform="translate(30.000000, 0.000000)">
                        <path d="M51.2108571,0 L53.2432857,1.76854862 C60.9747142,8.50420922 82.9877142,14.8409473 98.966,16.6503536 L102,17.0005612 L102,84.5704344 C102,100.329779 78.6632857,114.057919 52.3471428,125.387137 L50.9238571,126 L49.5298572,125.334605 C22.9267143,112.604557 0,99.2733191 0,84.5704344 L0,16.6270064 L3.41471426,16.6270064 C14.924,16.6270064 36.9018571,10.2377372 49.0144286,1.57009764 L51.2108571,0 Z" id="路径" fill="#878787" opacity="0.063340298"></path>
                        <path d="M51.2108571,10 L53.2432857,11.7685486 C60.9747142,18.5042092 74.9877142,22.8409473 90.966,24.6503536 L94,25.0005612 L94,76.5704344 C94,92.3297789 78.6632857,106.057919 52.3471428,117.387137 L50.9238571,118 L49.5298572,117.334605 C22.9267143,104.604557 8,91.2733191 8,76.5704344 L8,24.6270064 L11.4147143,24.6270064 C22.924,24.6270064 36.9018571,20.2377372 49.0144286,11.5700976 L51.2108571,10 Z" id="路径" fill="#878787" opacity="0.121434411"></path>
                        <path d="M51.1902857,16 L53.0244285,17.6325064 C60.0015714,23.8500393 70.8425714,27.8531821 85.262,29.5234033 L88,29.8466719 L88,73.7573241 C88,88.3044113 75.9644286,100.976541 52.2157142,111.43428 L50.9312857,112 L49.6732857,111.38579 C25.6655715,99.6349759 14,87.3292177 14,73.7573241 L14,29.5018521 L17.0815714,29.5018521 C27.468,29.5018521 38.2772857,25.450219 49.2081429,17.4493209 L51.1902857,16 Z" id="路径" fill="url(#radialGradient-1)"></path>
                        <path d="M51.1440835,20.6413201 L52.5280921,21.8701585 C58.9995208,27.6229004 69.0468493,31.3471519 82.4255153,32.8930208 L82.4255153,32.8930208 L84.5,33.1373495 L84.5,72.9442137 C84.5,79.4920172 81.7715421,85.6111012 76.3801348,91.2737528 C70.9239408,97.0044506 62.7536996,102.262985 51.9160169,107.023659 L51.9160169,107.023659 L50.9476713,107.449116 L50.0002342,106.98767 C39.0361384,101.634338 30.8855272,96.1600336 25.4801795,90.4724044 C20.1472397,84.8609643 17.5,79.0492374 17.5,72.9442137 L17.5,72.9442137 L17.5,32.8766978 L19.8317143,32.8766978 C29.4686991,32.8766978 39.5033851,29.1397631 49.6480754,21.7325037 L49.6480754,21.7325037 L51.1440835,20.6413201 Z" id="路径" stroke="url(#linearGradient-2)"></path>
                        <g id="形状结合">
                            <use fill="url(#linearGradient-3)" xlink:href="#path-5"></use>
                            <use fill="black" fill-opacity="1" filter="url(#filter-6)" xlink:href="#path-5"></use>
                            <path stroke="url(#linearGradient-4)" stroke-width="1" d="M51.012593,40.5 C51.5441352,40.5 52.0319931,40.7049007 52.3995083,41.0403687 C52.7340639,41.345751 52.9681597,41.7590076 53.0459323,42.2220126 L53.0676603,42.3978579 L53.0734504,46.2394436 C56.8523526,46.6956597 60.2480193,48.4017969 62.833553,50.9318578 C65.3376183,53.3821982 67.0816072,56.6052192 67.6784544,60.2132929 L67.7422085,60.6312958 L71.4605007,60.9394712 C72.0293536,60.9452519 72.5326341,61.174647 72.8971443,61.5389486 C73.271617,61.9132071 73.5,62.4311067 73.5,63 C73.5,63.531382 73.2949623,64.0191133 72.9592047,64.3865251 C72.6537288,64.7208004 72.240362,64.9547396 71.7772113,65.032463 L71.6013096,65.0541775 L67.7824292,65.0599609 C67.3259064,68.8367377 65.618785,72.2305091 63.0872385,74.8146019 C60.6355698,77.3171588 57.4108128,79.0601276 53.8007782,79.6566209 L53.382548,79.7203371 L53.0740098,83.4613651 C53.0680763,84.0177878 52.8374038,84.5250141 52.4679342,84.8942724 C52.0937036,85.2682889 51.5778201,85.5 51.012593,85.5 C50.4810508,85.5 49.9931929,85.2950993 49.6256777,84.9596313 C49.2911221,84.654249 49.0570263,84.2409924 48.9792537,83.7779874 L48.9575257,83.6021421 L48.9517356,79.7605564 C45.1728335,79.3043403 41.7771667,77.5982031 39.191633,75.0681422 C36.687613,72.6178461 34.9436418,69.3948972 34.346764,65.7869026 L34.2830062,65.3689088 L30.5395554,65.0605239 C29.9829423,65.0546032 29.4755673,64.8240762 29.1061929,64.4549131 C28.7318582,64.0807926 28.5,63.5650466 28.5,63 C28.5,62.468618 28.7050377,61.9808867 29.0407953,61.6134749 C29.3462717,61.2791991 29.7596392,61.0452597 30.2227908,60.9675366 L30.3986928,60.9458223 L34.2427574,60.9400351 C34.6992808,57.1632599 36.4064019,53.7694899 38.9379476,51.1853981 C41.3896163,48.6828412 44.6143732,46.9398724 48.2244078,46.3433791 L48.642638,46.2796629 L48.9511763,42.5386349 C48.9571097,41.9822122 49.1877822,41.4749859 49.5572518,41.1057276 C49.9314824,40.7317111 50.447366,40.5 51.012593,40.5 Z M51.7467086,70.2459954 L49.6236405,70.2459954 L49.6236405,72.493135 L51.7467086,72.493135 L51.7467086,70.2459954 Z M50.7383692,53.099231 L50.4376848,53.1033472 C48.7559606,53.151618 47.4513162,53.6254084 46.5472009,54.5982477 C45.6070922,55.6098164 45.1093697,57.1337258 45.0065948,59.1773455 L45.0065948,59.1773455 L47.2178459,59.1773455 L47.2328996,58.8986521 C47.3176263,57.7137057 47.6548073,56.8236283 48.2069261,56.206682 C48.8981229,55.4343277 49.9389761,55.0526239 51.3979191,55.1280786 C52.2918589,55.2323119 52.9591234,55.5455234 53.4227482,56.0335296 C53.8900739,56.5254315 54.1617963,57.2056971 54.2066348,58.1460826 C54.1513664,59.0851071 53.4565227,60.2150463 52.0465718,61.5391814 C50.4825938,62.9041273 49.6527152,64.2164646 49.6488247,65.6443829 L49.6488247,65.6443829 L49.648826,66.9553776 L51.7718947,66.9553776 L51.7718947,66.1584479 L51.7701127,66.0102609 C51.7915968,64.9621564 52.5289781,63.6882837 54.1569526,62.2479504 C55.8141341,60.8445981 56.6794356,59.5062257 56.633118,58.2100756 C56.5643595,56.5725013 56.0906192,55.3141652 55.1648055,54.4618289 C54.2278315,53.5992179 52.8486655,53.1619491 51.0468536,53.1038593 L51.0468536,53.1038593 L50.7383692,53.099231 Z"></path>
                        </g>
                    </g>
                </g>
            </g>
        </g>
    </g>
</svg>